<svg xmlns="http://www.w3.org/2000/svg" width="500" zoomAndPan="magnify"
     viewBox="0 0 375 374.999991" height="500" preserveAspectRatio="xMidYMid meet" version="1.0">
    <defs>
        <clipPath id="ac55ebfd2d">
            <path d="M 194 174 L 369.722656 174 L 369.722656 375 L 194 375 Z M 194 174 " clip-rule="nonzero"/>
        </clipPath>
        <clipPath id="879d5f401f">
            <path d="M 5.222656 174 L 181 174 L 181 375 L 5.222656 375 Z M 5.222656 174 " clip-rule="nonzero"/>
        </clipPath>
        <clipPath id="47bf5dd0cd">
            <path d="M 270 120 L 309.753906 120 L 309.753906 131 L 270 131 Z M 270 120 " clip-rule="nonzero"/>
        </clipPath>
        <clipPath id="938150d9c8">
            <path d="M 182 3.648438 L 193 3.648438 L 193 43 L 182 43 Z M 182 3.648438 " clip-rule="nonzero"/>
        </clipPath>
        <clipPath id="285166ef24">
            <path d="M 171 290 L 204 290 L 204 300.648438 L 171 300.648438 Z M 171 290 " clip-rule="nonzero"/>
        </clipPath>
    </defs>
    <g clip-path="url(#ac55ebfd2d)">
        <path fill="#333333"
              d="M 218.972656 471.679688 L 294.53125 472.488281 L 294.792969 472.492188 C 308.230469 472.492188 319.273438 461.5625 319.417969 448.128906 L 319.902344 402.589844 C 319.976562 396.03125 317.472656 389.828125 312.863281 385.117188 C 310.21875 382.414062 307.058594 380.421875 303.617188 379.179688 L 303.792969 377.972656 C 304.953125 370.191406 308.5 363.148438 314.050781 357.597656 L 349.5 322.152344 C 358.523438 313.128906 364.21875 301.207031 365.542969 288.585938 L 369.308594 252.882812 C 369.558594 251.601562 369.703125 250.277344 369.726562 248.902344 L 369.738281 248.777344 C 369.746094 248.707031 369.734375 248.640625 369.742188 248.574219 C 369.742188 248.359375 369.773438 248.160156 369.765625 247.945312 L 367.933594 190.40625 C 367.78125 186.183594 366.054688 182.21875 363.074219 179.242188 C 359.890625 176.054688 355.445312 174.273438 350.835938 174.382812 C 334.558594 174.921875 321.714844 188.613281 322.207031 204.917969 L 323.097656 232.34375 L 318.421875 251.261719 C 318.332031 251.261719 318.25 251.238281 318.15625 251.238281 C 312.394531 251.238281 306.988281 253.472656 302.929688 257.527344 L 272.417969 288.058594 L 261.8125 289.890625 C 255.027344 291.042969 248.613281 294.355469 243.742188 299.226562 L 222.753906 320.214844 C 216.609375 326.359375 213.113281 334.519531 212.90625 343.199219 L 212.128906 378.113281 C 202.367188 381.308594 195.214844 390.46875 195.097656 401.253906 L 194.609375 446.792969 C 194.464844 460.367188 205.390625 471.53125 218.972656 471.679688 Z M 231.347656 328.804688 L 252.335938 307.816406 C 255.4375 304.71875 259.527344 302.605469 263.867188 301.867188 L 276.390625 299.703125 C 276.820312 299.628906 277.226562 299.507812 277.617188 299.351562 C 277.644531 299.339844 277.671875 299.324219 277.703125 299.308594 C 278.429688 299.003906 279.078125 298.570312 279.621094 298.035156 C 279.628906 298.023438 279.640625 298.023438 279.648438 298.011719 L 311.523438 266.117188 C 315.050781 262.597656 321.277344 262.597656 324.792969 266.121094 C 326.554688 267.878906 327.519531 270.234375 327.519531 272.753906 C 327.519531 275.269531 326.550781 277.628906 324.792969 279.386719 L 288.179688 316.007812 C 285.804688 318.378906 285.804688 322.226562 288.179688 324.597656 C 289.367188 325.785156 290.917969 326.378906 292.472656 326.378906 C 294.027344 326.378906 295.582031 325.785156 296.769531 324.597656 L 333.382812 287.980469 C 337.4375 283.925781 339.671875 278.515625 339.671875 272.753906 C 339.671875 266.988281 337.4375 261.582031 333.382812 257.527344 C 332.359375 256.503906 331.246094 255.597656 330.0625 254.8125 L 335.097656 234.445312 C 335.113281 234.378906 335.109375 234.3125 335.125 234.246094 C 335.167969 234.042969 335.191406 233.835938 335.214844 233.625 C 335.238281 233.410156 335.257812 233.199219 335.257812 232.988281 C 335.257812 232.921875 335.273438 232.859375 335.269531 232.789062 L 334.351562 204.539062 C 334.0625 194.925781 341.640625 186.847656 351.167969 186.527344 C 352.386719 186.503906 353.609375 186.964844 354.484375 187.839844 C 355.046875 188.40625 355.738281 189.382812 355.789062 190.8125 L 357.609375 247.910156 L 357.175781 252.011719 C 357.164062 252.125 357.144531 252.242188 357.140625 252.355469 L 353.453125 287.3125 C 352.421875 297.175781 347.964844 306.496094 340.90625 313.558594 L 305.457031 349.003906 C 298.050781 356.40625 293.320312 365.804688 291.769531 376.203125 L 291.558594 377.65625 L 224.316406 376.9375 L 225.0625 343.472656 C 225.191406 337.941406 227.421875 332.730469 231.347656 328.804688 Z M 207.25 401.382812 C 207.324219 394.578125 212.917969 389.042969 219.855469 389.042969 C 219.855469 389.042969 219.855469 389.042969 219.859375 389.042969 L 295.414062 389.851562 C 298.726562 389.886719 301.835938 391.222656 304.175781 393.613281 C 306.515625 396.003906 307.785156 399.148438 307.75 402.457031 L 307.265625 448 C 307.191406 454.800781 301.601562 460.339844 294.792969 460.339844 L 294.792969 466.414062 L 294.65625 460.335938 L 219.105469 459.527344 C 212.226562 459.453125 206.6875 453.796875 206.761719 446.917969 Z M 207.25 401.382812 "
              fill-opacity="1" fill-rule="nonzero"/>
    </g>
    <g clip-path="url(#879d5f401f)">
        <path fill="#333333"
              d="M 5.253906 248.773438 L 5.257812 248.816406 C 5.277344 250.207031 5.429688 251.566406 5.691406 252.890625 L 9.453125 288.578125 C 10.777344 301.203125 16.472656 313.125 25.496094 322.148438 L 60.949219 357.597656 C 66.496094 363.144531 70.042969 370.191406 71.203125 377.945312 L 71.378906 379.179688 C 67.9375 380.421875 64.777344 382.414062 62.136719 385.113281 C 57.523438 389.824219 55.023438 396.03125 55.09375 402.589844 L 55.582031 448.125 C 55.722656 461.558594 66.765625 472.488281 80.203125 472.492188 L 156.027344 471.679688 C 169.605469 471.53125 180.535156 460.367188 180.386719 446.792969 L 179.902344 401.25 C 179.785156 390.515625 172.695312 381.398438 162.867188 378.164062 L 162.089844 343.191406 C 161.882812 334.519531 158.386719 326.359375 152.242188 320.214844 L 131.253906 299.226562 C 126.386719 294.359375 119.96875 291.042969 113.203125 289.894531 L 102.578125 288.058594 L 72.066406 257.527344 C 68.011719 253.472656 62.601562 251.238281 56.839844 251.238281 C 56.75 251.238281 56.664062 251.261719 56.574219 251.261719 L 51.898438 232.34375 L 52.789062 204.902344 C 53.28125 188.613281 40.4375 174.921875 24.089844 174.378906 C 19.636719 174.226562 15.113281 176.050781 11.929688 179.234375 C 8.941406 182.21875 7.214844 186.183594 7.0625 190.425781 L 5.222656 248.011719 C 5.21875 248.25 5.253906 248.476562 5.253906 248.714844 C 5.257812 248.734375 5.253906 248.753906 5.253906 248.773438 Z M 167.746094 401.382812 L 168.234375 446.921875 C 168.308594 453.796875 162.769531 459.453125 155.894531 459.527344 L 80.339844 460.339844 L 80.203125 466.417969 L 80.203125 460.339844 C 73.394531 460.339844 67.800781 454.804688 67.730469 448 L 67.246094 402.457031 C 67.210938 399.148438 68.480469 396.007812 70.820312 393.617188 C 73.160156 391.222656 76.273438 389.886719 79.582031 389.851562 L 155.273438 389.042969 C 162.078125 389.039062 167.671875 394.578125 167.746094 401.382812 Z M 20.519531 187.832031 C 21.386719 186.960938 22.550781 186.585938 23.757812 186.527344 C 33.359375 186.84375 40.933594 194.925781 40.644531 204.523438 L 39.726562 232.789062 C 39.722656 232.859375 39.738281 232.921875 39.738281 232.988281 C 39.738281 233.199219 39.761719 233.410156 39.78125 233.625 C 39.804688 233.835938 39.828125 234.042969 39.871094 234.242188 C 39.882812 234.3125 39.882812 234.378906 39.898438 234.445312 L 44.933594 254.8125 C 43.75 255.597656 42.636719 256.5 41.613281 257.523438 C 37.558594 261.582031 35.324219 266.988281 35.324219 272.753906 C 35.324219 278.515625 37.558594 283.925781 41.613281 287.980469 L 78.226562 324.597656 C 79.414062 325.785156 80.96875 326.378906 82.523438 326.378906 C 84.074219 326.378906 85.632812 325.785156 86.816406 324.597656 C 89.191406 322.226562 89.191406 318.378906 86.816406 316.003906 L 50.203125 279.386719 C 48.441406 277.628906 47.472656 275.269531 47.472656 272.753906 C 47.472656 270.234375 48.445312 267.878906 50.203125 266.117188 C 53.71875 262.597656 59.945312 262.59375 63.46875 266.117188 L 95.34375 298.015625 C 95.355469 298.023438 95.367188 298.027344 95.375 298.035156 C 95.921875 298.578125 96.574219 299.011719 97.308594 299.320312 C 97.332031 299.328125 97.355469 299.34375 97.375 299.351562 C 97.765625 299.507812 98.175781 299.628906 98.605469 299.707031 L 111.148438 301.875 C 115.46875 302.605469 119.558594 304.71875 122.660156 307.820312 L 143.648438 328.804688 C 147.574219 332.734375 149.804688 337.941406 149.933594 343.46875 L 150.679688 376.9375 L 83.4375 377.660156 L 83.222656 376.179688 C 81.675781 365.808594 76.945312 356.410156 69.539062 349.007812 L 34.089844 313.558594 C 27.03125 306.5 22.574219 297.179688 21.539062 287.3125 L 17.855469 252.355469 C 17.851562 252.242188 17.828125 252.128906 17.816406 252.011719 L 17.382812 247.894531 L 19.207031 190.835938 C 19.257812 189.382812 19.945312 188.40625 20.519531 187.832031 Z M 20.519531 187.832031 "
              fill-opacity="1" fill-rule="nonzero"/>
    </g>
    <path fill="#333333"
          d="M 219.472656 235.195312 L 219.472656 225.875 C 219.472656 209.492188 226.128906 193.753906 237.734375 182.695312 C 252.253906 168.863281 260.25 150.203125 260.25 130.152344 C 260.25 90.128906 227.6875 57.566406 187.664062 57.566406 C 184.929688 57.566406 182.15625 57.71875 179.417969 58.023438 C 144.738281 61.855469 117.128906 91.09375 115.191406 126.027344 C 114.019531 147.097656 122.015625 167.585938 137.121094 182.242188 C 149.023438 193.789062 155.851562 209.6875 155.851562 225.863281 L 155.851562 235.191406 C 155.851562 245.09375 163.90625 253.152344 173.8125 253.152344 L 201.511719 253.152344 C 211.414062 253.15625 219.472656 245.097656 219.472656 235.195312 Z M 206.261719 235.195312 C 206.261719 237.8125 204.128906 239.941406 201.515625 239.941406 L 173.8125 239.941406 C 171.195312 239.941406 169.066406 237.808594 169.066406 235.195312 L 169.066406 225.867188 C 169.066406 206.140625 160.773438 186.785156 146.320312 172.761719 C 133.964844 160.777344 127.425781 144.007812 128.386719 126.765625 C 129.96875 98.195312 152.535156 74.292969 180.875 71.15625 C 183.132812 70.90625 185.417969 70.78125 187.667969 70.78125 C 220.410156 70.78125 247.046875 97.414062 247.046875 130.15625 C 247.046875 146.554688 240.507812 161.816406 228.628906 173.136719 C 214.421875 186.671875 206.269531 205.894531 206.269531 225.875 L 206.269531 235.195312 Z M 206.261719 235.195312 "
          fill-opacity="1" fill-rule="nonzero"/>
    <path fill="#333333"
          d="M 209.160156 259.679688 L 166.164062 259.679688 C 163.425781 259.679688 161.210938 261.898438 161.210938 264.632812 C 161.210938 267.371094 163.425781 269.589844 166.164062 269.589844 L 209.164062 269.589844 C 211.902344 269.589844 214.117188 267.371094 214.117188 264.632812 C 214.117188 261.898438 211.898438 259.679688 209.160156 259.679688 Z M 209.160156 259.679688 "
          fill-opacity="1" fill-rule="nonzero"/>
    <path fill="#333333"
          d="M 214.113281 280.289062 C 214.113281 277.550781 211.898438 275.335938 209.160156 275.335938 L 166.164062 275.335938 C 163.425781 275.335938 161.210938 277.550781 161.210938 280.289062 C 161.210938 283.027344 163.425781 285.242188 166.164062 285.242188 L 209.164062 285.242188 C 211.898438 285.242188 214.113281 283.023438 214.113281 280.289062 Z M 214.113281 280.289062 "
          fill-opacity="1" fill-rule="nonzero"/>
    <path fill="#333333"
          d="M 71.183594 130.035156 L 99.730469 130.035156 C 102.46875 130.035156 104.683594 127.820312 104.683594 125.082031 C 104.683594 122.34375 102.46875 120.125 99.730469 120.125 L 71.183594 120.125 C 68.445312 120.125 66.230469 122.34375 66.230469 125.082031 C 66.230469 127.820312 68.445312 130.035156 71.183594 130.035156 Z M 71.183594 130.035156 "
          fill-opacity="1" fill-rule="nonzero"/>
    <g clip-path="url(#47bf5dd0cd)">
        <path fill="#333333"
              d="M 309.09375 125.082031 C 309.09375 122.34375 306.878906 120.125 304.140625 120.125 L 275.59375 120.125 C 272.855469 120.125 270.640625 122.34375 270.640625 125.082031 C 270.640625 127.820312 272.855469 130.035156 275.59375 130.035156 L 304.140625 130.035156 C 306.878906 130.035156 309.09375 127.820312 309.09375 125.082031 Z M 309.09375 125.082031 "
              fill-opacity="1" fill-rule="nonzero"/>
    </g>
    <g clip-path="url(#938150d9c8)">
        <path fill="#333333"
              d="M 182.707031 8.601562 L 182.707031 37.148438 C 182.707031 39.886719 184.925781 42.101562 187.664062 42.101562 C 190.398438 42.101562 192.617188 39.886719 192.617188 37.148438 L 192.617188 8.601562 C 192.617188 5.867188 190.398438 3.648438 187.664062 3.648438 C 184.925781 3.648438 182.707031 5.867188 182.707031 8.601562 Z M 182.707031 8.601562 "
              fill-opacity="1" fill-rule="nonzero"/>
    </g>
    <path fill="#333333"
          d="M 266.523438 39.214844 L 246.339844 59.398438 C 244.402344 61.332031 244.402344 64.472656 246.339844 66.40625 C 247.304688 67.371094 248.574219 67.855469 249.84375 67.855469 C 251.109375 67.855469 252.378906 67.371094 253.347656 66.40625 L 273.53125 46.222656 C 275.464844 44.289062 275.464844 41.148438 273.53125 39.214844 C 271.589844 37.28125 268.457031 37.28125 266.523438 39.214844 Z M 266.523438 39.214844 "
          fill-opacity="1" fill-rule="nonzero"/>
    <path fill="#333333"
          d="M 128.984375 183.757812 C 127.050781 181.820312 123.917969 181.820312 121.980469 183.757812 L 101.796875 203.941406 C 99.863281 205.871094 99.863281 209.011719 101.796875 210.945312 C 102.765625 211.914062 104.035156 212.394531 105.300781 212.394531 C 106.570312 212.394531 107.839844 211.914062 108.804688 210.945312 L 128.988281 190.761719 C 130.921875 188.832031 130.921875 185.691406 128.984375 183.757812 Z M 128.984375 183.757812 "
          fill-opacity="1" fill-rule="nonzero"/>
    <path fill="#333333"
          d="M 121.980469 66.40625 C 122.949219 67.371094 124.21875 67.855469 125.484375 67.855469 C 126.753906 67.855469 128.023438 67.371094 128.988281 66.40625 C 130.925781 64.472656 130.925781 61.332031 128.988281 59.398438 L 108.804688 39.214844 C 106.871094 37.28125 103.738281 37.28125 101.800781 39.214844 C 99.867188 41.148438 99.867188 44.289062 101.800781 46.222656 Z M 121.980469 66.40625 "
          fill-opacity="1" fill-rule="nonzero"/>
    <path fill="#333333"
          d="M 266.523438 210.945312 C 267.488281 211.914062 268.757812 212.394531 270.027344 212.394531 C 271.292969 212.394531 272.5625 211.914062 273.53125 210.945312 C 275.464844 209.011719 275.464844 205.871094 273.53125 203.941406 L 253.347656 183.757812 C 251.410156 181.820312 248.277344 181.820312 246.34375 183.757812 C 244.40625 185.691406 244.40625 188.832031 246.34375 190.761719 Z M 266.523438 210.945312 "
          fill-opacity="1" fill-rule="nonzero"/>
    <g clip-path="url(#285166ef24)">
        <path fill="#333333"
              d="M 203.363281 295.941406 C 203.363281 293.203125 201.148438 290.988281 198.410156 290.988281 L 176.910156 290.988281 C 174.175781 290.988281 171.957031 293.203125 171.957031 295.941406 C 171.957031 298.679688 174.175781 300.894531 176.910156 300.894531 L 198.410156 300.894531 C 201.148438 300.894531 203.363281 298.679688 203.363281 295.941406 Z M 203.363281 295.941406 "
              fill-opacity="1" fill-rule="nonzero"/>
    </g>
    <style>
        path { fill: #333; }
        @media (prefers-color-scheme: dark) {
        path { fill: #eee; }
        }
    </style>
</svg>
