<svg xmlns="http://www.w3.org/2000/svg" width="500" zoomAndPan="magnify"
     viewBox="0 0 375 374.999991" height="500" preserveAspectRatio="xMidYMid meet" version="1.0">
    <defs>
        <clipPath id="de128c75e0">
            <path d="M 161 127 L 355.917969 127 L 355.917969 210 L 161 210 Z M 161 127 " clip-rule="nonzero"/>
        </clipPath>
        <clipPath id="5b8ecc3a05">
            <path d="M 25.167969 127 L 130 127 L 130 210 L 25.167969 210 Z M 25.167969 127 " clip-rule="nonzero"/>
        </clipPath>
    </defs>
    <path fill="#333333"
          d="M 328.710938 244.53125 C 328.710938 237.425781 322.953125 231.667969 315.847656 231.667969 L 173.945312 231.667969 C 166.839844 231.667969 161.082031 237.425781 161.082031 244.53125 L 161.082031 359.25 C 161.082031 366.355469 166.839844 372.113281 173.945312 372.113281 L 315.847656 372.113281 C 322.953125 372.113281 328.710938 366.355469 328.710938 359.25 Z M 328.710938 244.53125 "
          fill-opacity="1" fill-rule="nonzero"/>
    <g clip-path="url(#de128c75e0)">
        <path fill="#333333"
              d="M 355.894531 140.328125 C 355.894531 133.222656 350.136719 127.464844 343.03125 127.464844 L 173.945312 127.464844 C 166.839844 127.464844 161.082031 133.222656 161.082031 140.328125 L 161.082031 196.152344 C 161.082031 203.257812 166.839844 209.015625 173.945312 209.015625 L 343.03125 209.015625 C 350.136719 209.015625 355.894531 203.257812 355.894531 196.152344 Z M 355.894531 140.328125 "
              fill-opacity="1" fill-rule="nonzero"/>
    </g>
    <path fill="#333333"
          d="M 129.371094 359.25 C 129.371094 366.355469 123.609375 372.113281 116.507812 372.113281 L 65.214844 372.113281 C 58.109375 372.113281 52.351562 366.355469 52.351562 359.25 L 52.351562 244.53125 C 52.351562 237.425781 58.109375 231.667969 65.214844 231.667969 L 116.507812 231.667969 C 123.609375 231.667969 129.371094 237.425781 129.371094 244.53125 Z M 129.371094 359.25 "
          fill-opacity="1" fill-rule="nonzero"/>
    <g clip-path="url(#5b8ecc3a05)">
        <path fill="#333333"
              d="M 129.371094 196.148438 C 129.371094 203.253906 123.609375 209.015625 116.507812 209.015625 L 38.03125 209.015625 C 30.925781 209.015625 25.167969 203.257812 25.167969 196.148438 L 25.167969 140.328125 C 25.167969 133.222656 30.925781 127.464844 38.03125 127.464844 L 116.507812 127.464844 C 123.609375 127.464844 129.371094 133.222656 129.371094 140.328125 Z M 129.371094 196.148438 "
              fill-opacity="1" fill-rule="nonzero"/>
    </g>
    <path fill="#333333"
          d="M 316.121094 23.757812 C 308.625 10.769531 293.023438 3.019531 274.417969 3.019531 C 232.046875 3.019531 202.023438 41.671875 187.277344 66.074219 C 172.503906 41.699219 142.488281 3.261719 100.214844 3.261719 C 73.402344 3.261719 53.949219 19.394531 53.949219 41.28125 C 53.949219 80.097656 97.78125 105.425781 185.898438 105.425781 C 274.011719 105.425781 320.695312 72.867188 320.695312 41.605469 C 320.6875 35.386719 319.324219 29.304688 316.121094 23.757812 Z M 99.753906 62.417969 C 84.945312 54.804688 79.667969 46.261719 79.667969 40.796875 C 79.667969 33.8125 88.304688 28.742188 100.210938 28.742188 C 128.890625 28.742188 151.582031 57.238281 163.914062 77.078125 C 130.878906 74.960938 111.050781 68.230469 99.753906 62.417969 Z M 292.96875 47.296875 C 285.507812 60.214844 260.089844 73.90625 210.839844 77.074219 C 223.273438 57.238281 246.070312 28.746094 274.414062 28.746094 C 285.382812 28.746094 291.636719 32.816406 293.839844 36.625 C 295.59375 39.660156 295.300781 43.253906 292.96875 47.296875 Z M 292.96875 47.296875 "
          fill-opacity="1" fill-rule="nonzero"/>
    <style>
        path { fill: #333; }
        @media (prefers-color-scheme: dark) {
        path { fill: #eee; }
        }
    </style>
</svg>
